<svg width="512" height="512" viewBox="0 0 512 512" fill="none" xmlns="http://www.w3.org/2000/svg">
<rect width="512" height="512" rx="72" fill="#F7F7F7"/>
<path d="M247.581 122.692C286.764 117.275 327.091 145.359 335.425 184.104C338.477 198.281 338.047 212.988 334.171 226.963C329.982 241.816 320.217 259.687 313.285 274.028L279.412 344.576L254.063 398.375C251.113 404.644 243.878 420.796 240.57 425.921C232.197 425.803 223.823 425.813 215.451 425.953C217.93 420.086 220.544 414.277 223.292 408.53C233.936 387.758 243.776 364.856 254.243 343.704L272.553 306.521C276.604 298.351 282.107 287.982 285.193 279.596C280.307 282.073 271.82 283.951 266.385 284.632C245.097 287.461 223.558 281.706 206.519 268.634C147.664 222.872 174.035 131.698 247.581 122.692ZM315.594 197.334C312.033 164.691 282.65 141.137 250.01 144.764C217.466 148.381 193.992 177.66 197.543 210.21C201.093 242.76 230.328 266.291 262.887 262.806C295.541 259.312 319.155 229.978 315.594 197.334ZM255.305 189.605C259.267 189.304 263.187 190.583 266.223 193.166C268.985 195.479 270.94 199.094 271.265 202.709C271.622 206.496 270.442 210.267 267.995 213.161C265.313 216.39 261.618 218.141 257.494 218.506C256.762 218.541 256.082 218.552 255.349 218.504C248.28 218.041 242.226 212.536 241.555 205.34C241.229 201.608 242.388 197.899 244.776 195.028C247.471 191.764 251.144 189.99 255.305 189.605Z" fill="#0E151E"/>
<path d="M246.964 86.4335C273.928 84.3243 297.389 89.8579 320.298 104.221C346.09 120.752 364.33 146.778 371.065 176.662C375.264 194.983 375.117 214.033 370.635 232.287C365.592 252.641 351.312 279.935 341.886 299.601L307.679 371.878L290.135 409.387C288.105 413.75 284.632 422.405 282.38 426L256.301 425.872C258.562 421.774 262.348 412.705 264.466 408.131C270.194 395.724 276.014 383.359 281.924 371.038L315.343 301.391C321.918 288.207 328.404 274.98 334.802 261.711C341.692 247.163 348.364 234.196 350.529 218.168C354.415 189.398 347.446 165.993 330.124 142.971C328.546 141.013 326.888 139.121 325.154 137.3C308.014 119.183 284.389 108.602 259.459 107.878C233.631 107.015 208.545 116.588 189.859 134.438C171.632 151.679 161.321 176.494 160.661 201.48C160.007 227.114 169.57 251.955 187.244 270.534C208.085 292.486 230.137 299.662 259.551 300.401C256.767 307.544 253.304 315.087 250.193 322.138C225.164 320.392 201.352 312.136 181.844 296.095C157.207 275.808 141.601 246.597 138.434 214.841C135.75 183.497 145.581 152.363 165.778 128.242C186.756 102.873 214.51 89.5196 246.964 86.4335Z" fill="#0E151E"/>
</svg>
