<svg width="1816" height="432" viewBox="0 0 1816 432" fill="none" xmlns="http://www.w3.org/2000/svg">
<path d="M139.234 46.6213C189.02 39.7386 240.259 75.4217 250.848 124.651C254.727 142.665 254.181 161.352 249.255 179.109C243.933 197.98 231.524 220.686 222.716 238.908L179.678 328.547L147.47 396.905C143.721 404.87 134.529 425.391 130.326 431.904C119.687 431.753 109.047 431.768 98.4097 431.946C101.559 424.49 104.881 417.109 108.372 409.808C121.896 383.414 134.399 354.315 147.698 327.439L170.963 280.194C176.11 269.813 183.101 256.639 187.023 245.984C180.814 249.131 170.031 251.517 163.126 252.382C136.077 255.977 108.709 248.664 87.0601 232.055C12.2789 173.909 45.787 58.0651 139.234 46.6213ZM225.652 141.461C221.127 99.9849 183.791 70.057 142.32 74.6653C100.968 79.2608 71.1428 116.464 75.6548 157.822C80.1662 199.179 117.312 229.078 158.682 224.651C200.171 220.211 230.176 182.938 225.652 141.461ZM149.048 131.64C154.082 131.258 159.063 132.883 162.92 136.165C166.429 139.104 168.912 143.697 169.327 148.29C169.78 153.101 168.281 157.892 165.171 161.571C161.764 165.673 157.069 167.899 151.829 168.363C150.899 168.406 150.036 168.42 149.105 168.36C140.122 167.771 132.429 160.776 131.578 151.633C131.163 146.892 132.635 142.178 135.669 138.531C139.094 134.384 143.761 132.13 149.048 131.64Z" fill="#0E151E"/>
<path d="M138.449 0.550808C172.711 -2.12919 202.52 4.90189 231.627 23.1514C264.399 44.1555 287.574 77.2251 296.132 115.196C301.468 138.474 301.281 162.679 295.586 185.873C289.179 211.734 271.034 246.414 259.057 271.402L215.594 363.237L193.303 410.895C190.723 416.439 186.311 427.437 183.45 432.004L150.313 431.841C153.186 426.634 157.997 415.111 160.688 409.299C167.966 393.535 175.361 377.825 182.87 362.169L225.332 273.675C233.686 256.925 241.928 240.119 250.056 223.258C258.811 204.774 267.288 188.298 270.04 167.933C274.977 131.377 266.122 101.639 244.113 72.3877C242.107 69.8998 240.001 67.4958 237.798 65.1814C216.02 42.1619 186.002 28.718 154.325 27.798C121.509 26.7014 89.6341 38.8654 65.8924 61.545C42.7333 83.4518 29.6321 114.981 28.7934 146.729C27.9623 179.299 40.1133 210.863 62.57 234.469C89.0495 262.361 117.07 271.479 154.443 272.418C150.905 281.494 146.506 291.078 142.553 300.037C110.751 297.818 80.4956 287.329 55.7076 266.947C24.4044 241.17 4.57537 204.054 0.551999 163.706C-2.85838 123.879 9.63213 84.3212 35.2953 53.6729C61.9496 21.4388 97.2142 4.47205 138.449 0.550808Z" fill="#0E151E"/>
<path d="M394.32 96.96L437.28 112.56L354.96 338.64L312 323.04L394.32 96.96ZM566.657 277.44C543.937 277.44 525.217 275.6 510.497 271.92C495.777 268.08 484.897 262.4 477.857 254.88C470.817 247.2 467.297 237.6 467.297 226.08C467.297 215.36 470.737 206.08 477.617 198.24C484.497 190.24 495.217 184 509.777 179.52C524.497 175.04 543.457 172.8 566.657 172.8C571.297 172.8 576.017 172.8 580.817 172.8C585.617 172.8 590.337 172.8 594.977 172.8H686.657V203.04C676.257 203.52 665.697 203.04 654.977 201.6C644.417 200 634.657 197.92 625.697 195.36L623.057 191.76C630.257 194 637.057 196.88 643.457 200.4C650.017 203.92 655.297 208.16 659.297 213.12C663.297 218.08 665.297 224 665.297 230.88C665.297 240.8 661.857 249.28 654.977 256.32C648.257 263.2 637.617 268.48 623.057 272.16C608.657 275.68 589.857 277.44 566.657 277.44ZM617.777 345.6V339.12C617.777 334.32 615.617 331.44 611.297 330.48C607.137 329.68 600.497 329.28 591.377 329.28H524.417C513.057 329.28 503.857 328.48 496.817 326.88C489.937 325.28 484.657 323.12 480.977 320.4C477.457 317.68 475.057 314.64 473.777 311.28C472.657 308.08 472.097 304.88 472.097 301.68C472.097 294.8 474.657 289.44 479.777 285.6C484.897 281.6 492.737 278.8 503.297 277.2C513.857 275.6 527.297 274.8 543.617 274.8L566.657 277.44C553.217 277.44 543.857 278.16 538.577 279.6C533.297 280.88 530.657 283.52 530.657 287.52C530.657 289.76 531.697 291.44 533.777 292.56C535.857 293.52 538.657 294 542.177 294H612.977C628.817 294 641.297 295.12 650.417 297.36C659.537 299.76 665.937 303.68 669.617 309.12C673.457 314.72 675.377 322.32 675.377 331.92V345.6H617.777ZM566.657 246C577.217 246 585.697 245.2 592.097 243.6C598.657 241.84 603.377 239.52 606.257 236.64C609.137 233.76 610.577 230.56 610.577 227.04C610.577 223.04 609.137 219.6 606.257 216.72C603.377 213.84 598.737 211.6 592.337 210C585.937 208.4 577.377 207.6 566.657 207.6C556.097 207.6 547.537 208.4 540.977 210C534.417 211.6 529.617 213.84 526.577 216.72C523.537 219.6 522.017 223.04 522.017 227.04C522.017 230.56 523.457 233.76 526.337 236.64C529.377 239.52 534.177 241.84 540.737 243.6C547.297 245.2 555.937 246 566.657 246ZM791.651 297.36C774.371 297.36 759.011 294.96 745.571 290.16C732.131 285.2 721.491 278.08 713.651 268.8C705.971 259.52 702.131 248.32 702.131 235.2C702.131 221.44 705.971 209.92 713.651 200.64C721.491 191.36 732.131 184.4 745.571 179.76C759.011 175.12 774.371 172.8 791.651 172.8C810.851 172.8 827.411 175.44 841.331 180.72C855.411 185.84 866.211 193.12 873.731 202.56C881.411 211.84 885.251 222.72 885.251 235.2C885.251 244.48 883.091 252.96 878.771 260.64C874.451 268.16 868.211 274.72 860.051 280.32C851.891 285.76 842.051 290 830.531 293.04C819.011 295.92 806.051 297.36 791.651 297.36ZM813.251 260.88C825.411 260.88 836.531 260.16 846.611 258.72C856.851 257.12 865.011 254.48 871.091 250.8C877.331 247.12 880.451 241.92 880.451 235.2C880.451 228.32 877.331 223.04 871.091 219.36C865.011 215.68 856.851 213.12 846.611 211.68C836.531 210.24 825.411 209.52 813.251 209.52C796.931 209.52 784.291 211.68 775.331 216C766.371 220.16 761.891 226.56 761.891 235.2C761.891 240.8 763.891 245.52 767.891 249.36C771.891 253.2 777.731 256.08 785.411 258C793.091 259.92 802.371 260.88 813.251 260.88ZM880.451 176.4H938.051V294H883.811C883.811 294 883.491 292.16 882.851 288.48C882.371 284.8 881.811 279.52 881.171 272.64C880.691 265.76 880.451 257.68 880.451 248.4V176.4ZM969.366 176.4H1026.97V294H969.366V176.4ZM1113.37 172.8C1122.81 172.8 1131.93 173.84 1140.73 175.92C1149.53 177.84 1157.37 181.2 1164.25 186C1171.29 190.8 1176.89 197.36 1181.05 205.68C1185.21 214 1187.29 224.48 1187.29 237.12V294H1129.69V244.32C1129.69 232.32 1126.57 223.84 1120.33 218.88C1114.09 213.76 1102.81 211.2 1086.49 211.2C1077.85 211.2 1069.45 212.16 1061.29 214.08C1053.29 216 1046.09 218.32 1039.69 221.04C1033.29 223.6 1028.25 226.16 1024.57 228.72L1024.09 219.6C1024.73 216.72 1026.89 212.72 1030.57 207.6C1034.41 202.32 1039.93 197.04 1047.13 191.76C1054.33 186.48 1063.37 182 1074.25 178.32C1085.29 174.64 1098.33 172.8 1113.37 172.8ZM1270.81 172.8C1280.25 172.8 1289.37 173.84 1298.17 175.92C1306.97 177.84 1314.81 181.2 1321.69 186C1328.73 190.8 1334.33 197.36 1338.49 205.68C1342.65 214 1344.73 224.48 1344.73 237.12V294H1287.13V244.32C1287.13 232.32 1284.01 223.84 1277.77 218.88C1271.53 213.76 1260.25 211.2 1243.93 211.2C1235.29 211.2 1226.89 212.16 1218.73 214.08C1210.73 216 1203.53 218.32 1197.13 221.04C1190.73 223.6 1185.69 226.16 1182.01 228.72L1181.53 217.2C1182.17 214.8 1184.57 211.2 1188.73 206.4C1192.89 201.6 1198.73 196.64 1206.25 191.52C1213.93 186.4 1223.13 182 1233.85 178.32C1244.73 174.64 1257.05 172.8 1270.81 172.8ZM1538.24 251.76H1594.88C1593.44 261.04 1588.8 269.12 1580.96 276C1573.28 282.88 1562 288.24 1547.12 292.08C1532.4 295.76 1513.6 297.6 1490.72 297.6C1466.56 297.6 1445.68 295.68 1428.08 291.84C1410.64 288 1397.2 281.52 1387.76 272.4C1378.32 263.28 1373.6 250.96 1373.6 235.44C1373.6 220.08 1378.16 207.84 1387.28 198.72C1396.56 189.44 1409.92 182.8 1427.36 178.8C1444.8 174.8 1465.92 172.8 1490.72 172.8C1515.04 172.8 1534.96 174.96 1550.48 179.28C1566 183.6 1577.44 190.64 1584.8 200.4C1592.16 210 1595.68 223.04 1595.36 239.52H1432.16C1432.96 243.68 1435.2 247.52 1438.88 251.04C1442.72 254.56 1448.56 257.44 1456.4 259.68C1464.4 261.76 1475.04 262.8 1488.32 262.8C1502.08 262.8 1513.36 261.84 1522.16 259.92C1531.12 258 1536.48 255.28 1538.24 251.76ZM1488.32 207.6C1471.36 207.6 1458.4 209.44 1449.44 213.12C1440.64 216.8 1435.44 220.48 1433.84 224.16H1539.44C1538.32 220 1533.84 216.24 1526 212.88C1518.16 209.36 1505.6 207.6 1488.32 207.6ZM1622.99 251.76H1676.03C1678.27 255.92 1682.51 258.8 1688.75 260.4C1695.15 262 1704.27 262.8 1716.11 262.8C1725.23 262.8 1731.95 262.32 1736.27 261.36C1740.75 260.4 1743.63 259.12 1744.91 257.52C1746.35 255.92 1747.07 254.24 1747.07 252.48C1747.07 249.76 1745.55 247.92 1742.51 246.96C1739.63 245.84 1734.67 245.2 1727.63 245.04C1720.59 244.72 1710.91 244.56 1698.59 244.56C1686.91 244.56 1676.43 244.08 1667.15 243.12C1658.03 242 1650.27 240.32 1643.87 238.08C1637.47 235.68 1632.59 232.4 1629.23 228.24C1625.87 224.08 1624.19 218.88 1624.19 212.64C1624.19 204.96 1626.67 198.56 1631.63 193.44C1636.59 188.16 1643.31 184.08 1651.79 181.2C1660.27 178.16 1670.03 176 1681.07 174.72C1692.27 173.44 1703.95 172.8 1716.11 172.8C1736.27 172.8 1752.75 174.88 1765.55 179.04C1778.35 183.04 1787.79 188.48 1793.87 195.36C1799.95 202.24 1802.91 210 1802.75 218.64H1751.15C1749.39 214.48 1746.03 211.6 1741.07 210C1736.27 208.4 1727.95 207.6 1716.11 207.6C1704.91 207.6 1696.75 208.48 1691.63 210.24C1686.67 211.84 1684.19 214.48 1684.19 218.16C1684.19 220.56 1685.39 222.4 1687.79 223.68C1690.35 224.8 1695.07 225.6 1701.95 226.08C1708.99 226.56 1719.23 226.8 1732.67 226.8C1741.95 226.8 1750.99 227.12 1759.79 227.76C1768.75 228.4 1776.75 229.76 1783.79 231.84C1790.99 233.92 1796.67 237.12 1800.83 241.44C1804.99 245.76 1807.07 251.68 1807.07 259.2C1807.07 268.32 1803.31 275.76 1795.79 281.52C1788.43 287.12 1777.95 291.2 1764.35 293.76C1750.75 296.32 1734.67 297.6 1716.11 297.6C1699.95 297.6 1686.27 296.56 1675.07 294.48C1664.03 292.4 1654.99 289.68 1647.95 286.32C1640.91 282.8 1635.47 279.04 1631.63 275.04C1627.95 270.88 1625.47 266.8 1624.19 262.8C1623.07 258.64 1622.67 254.96 1622.99 251.76Z" fill="#0E151E"/>
</svg>
